<svg width="132" height="54" viewBox="0 0 132 54" fill="none" xmlns="http://www.w3.org/2000/svg">
<path d="M28.4854 18.9927C31.9952 18.9927 35.1194 21.1533 36.3922 24.4327C37.665 27.7122 36.7779 31.4161 34.1552 33.7696C31.571 36.123 27.7911 36.6632 24.6284 35.0813V46H20V18.9927H24.6284V19.9187C25.8241 19.3014 27.1354 18.9927 28.4854 18.9927ZM28.4854 31.3003C30.5682 31.3003 32.3038 29.6027 32.3038 27.4807C32.3038 25.9374 31.3781 24.5485 29.9125 23.9698C28.4854 23.3525 26.8654 23.6997 25.7469 24.78C24.667 25.8603 24.3584 27.5193 24.9369 28.9468C25.5155 30.3743 26.904 31.3003 28.4854 31.3003Z" fill="#3366CC"/>
<path d="M50.8083 18.9927H55.4753V35.9687H50.8083V35.0813C47.2213 36.8947 42.9015 35.9301 40.3559 32.8436C37.8488 29.7185 37.8488 25.2815 40.3559 22.1564C42.9015 19.0699 47.2213 18.1053 50.8083 19.9187V18.9927ZM46.9899 31.3389C49.0727 31.3003 50.8083 29.6027 50.8083 27.4807C50.8083 25.3973 49.0727 23.6611 46.9899 23.6611C44.8686 23.6611 43.1715 25.3973 43.1715 27.4807C43.1715 29.6027 44.8686 31.3389 46.9899 31.3389Z" fill="#3366CC"/>
<path d="M65.2244 23.6611H63.0259V31.3003H65.2244V35.9687H62.9102C60.4032 35.9687 58.359 33.9239 58.359 31.4161V23.6611H57.009V18.9927H58.359V9H63.0259V18.9927H65.2244V23.6611Z" fill="#3366CC"/>
<path d="M73.4657 18.9927C75.1628 18.9927 76.7442 19.6486 77.9399 20.8446L74.6614 24.1627C74.16 23.6611 73.4657 23.5454 72.8486 23.7769C72.2315 24.0469 71.8072 24.6642 71.8072 25.3201V36.0073H67.1788V18.9927H71.8072V19.2242C72.3472 19.0699 72.9258 18.9927 73.4657 18.9927Z" fill="#3366CC"/>
<path d="M84.1436 35.9687H79.5152V19.0313H84.1436V35.9687ZM84.1436 14.0156H79.5152V9.07717H84.1436V14.0156Z" fill="#3366CC"/>
<path d="M94.6027 18.9927C99.2696 18.9927 103.049 22.8123 103.088 27.4807C103.088 30.9145 101.005 34.001 97.8425 35.3128C94.6798 36.6632 91.0157 35.9301 88.5857 33.4995C86.1558 31.0688 85.423 27.4035 86.7344 24.2398C88.0458 21.0761 91.1699 18.9927 94.6027 18.9927ZM94.6027 31.3003C96.6854 31.3003 98.4211 29.6027 98.4211 27.4807C98.4211 25.9374 97.4954 24.5485 96.0297 23.9698C94.6027 23.3525 92.9827 23.6997 91.8642 24.78C90.7842 25.8603 90.4757 27.5193 91.0542 28.9468C91.6328 30.3743 93.0213 31.3003 94.6027 31.3003Z" fill="#3366CC"/>
<path d="M112.461 23.6611H110.262V31.3003H112.461V35.9687H110.146C107.639 35.9687 105.595 33.9239 105.595 31.4161V23.6611H104.245V18.9927H105.595V9H110.262V18.9927H112.461V23.6611Z" fill="#3366CC"/>
<path d="M126.333 18.9927H131V35.9687H126.333V35.0813C122.746 36.8947 118.426 35.9301 115.881 32.8436C113.374 29.7185 113.374 25.2815 115.881 22.1564C118.426 19.0699 122.746 18.1053 126.333 19.9187V18.9927ZM122.515 31.3389C124.597 31.3003 126.333 29.6027 126.333 27.4807C126.333 25.3973 124.597 23.6611 122.515 23.6611C120.393 23.6611 118.696 25.3973 118.696 27.4807C118.696 29.6027 120.393 31.3389 122.515 31.3389Z" fill="#3366CC"/>
<path d="M8.51289 0C13.1808 0 16.9614 3.82178 17 8.49285C17 11.9286 14.9168 15.0169 11.7534 16.3294C8.59005 17.6806 4.92516 16.9471 2.49476 14.515C0.0643606 12.083 -0.668617 8.41564 0.643027 5.25012C1.95467 2.08461 5.07947 0 8.51289 0ZM8.51289 12.3146C10.5961 12.3146 12.3321 10.6161 12.3321 8.49285C12.3321 6.94869 11.4062 5.55896 9.94027 4.9799C8.51289 4.36224 6.89262 4.70967 5.77387 5.79058C4.69369 6.87149 4.38507 8.53145 4.96374 9.95979C5.5424 11.3881 6.9312 12.3146 8.51289 12.3146Z" fill="#FFCC66"/>
<path d="M96.8042 48.0371C97.2774 48.0371 97.691 48.1362 98.045 48.3343C98.4024 48.5325 98.677 48.8137 98.8689 49.178C99.0641 49.5422 99.1617 49.9688 99.1617 50.4578V53.6789C99.1617 53.8067 99.0956 53.8706 98.9632 53.8706H98.5116C98.3792 53.8706 98.313 53.8067 98.313 53.6789V50.5392C98.313 50.1941 98.2452 49.8937 98.1095 49.6381C97.9739 49.3793 97.782 49.1811 97.5338 49.0437C97.2857 48.9031 96.9978 48.8328 96.6702 48.8328C96.3459 48.8328 96.0432 48.9079 95.7619 49.0581C95.484 49.2051 95.2623 49.4096 95.0969 49.6717C94.9314 49.9305 94.8487 50.2197 94.8487 50.5392V53.6789C94.8487 53.8067 94.7825 53.8706 94.6502 53.8706H94.1985C94.0662 53.8706 94 53.8067 94 53.6789V48.3343C94 48.2065 94.0662 48.1426 94.1985 48.1426H94.5857C94.718 48.1426 94.7858 48.2049 94.7892 48.3295L94.804 48.9383C95.0191 48.6763 95.3086 48.4606 95.6726 48.2912C96.0366 48.1218 96.4138 48.0371 96.8042 48.0371Z" fill="#3366CC"/>
<path d="M103.174 54C102.638 54 102.139 53.869 101.675 53.607C101.216 53.3417 100.848 52.9822 100.574 52.5285C100.299 52.0715 100.162 51.573 100.162 51.033C100.162 50.4865 100.299 49.9848 100.574 49.5279C100.848 49.0709 101.217 48.7098 101.68 48.4446C102.144 48.1762 102.645 48.0419 103.184 48.0419C103.72 48.0419 104.22 48.1762 104.683 48.4446C105.146 48.7098 105.515 49.0709 105.79 49.5279C106.065 49.9848 106.202 50.4865 106.202 51.033C106.202 51.573 106.063 52.0715 105.785 52.5285C105.51 52.9822 105.14 53.3417 104.673 53.607C104.21 53.869 103.71 54 103.174 54ZM103.189 53.2091C103.57 53.2091 103.925 53.1132 104.256 52.9215C104.587 52.7298 104.852 52.4677 105.05 52.1354C105.249 51.7999 105.348 51.4308 105.348 51.0282C105.348 50.6255 105.249 50.2564 105.05 49.9209C104.852 49.5822 104.587 49.317 104.256 49.1252C103.925 48.9303 103.57 48.8328 103.189 48.8328C102.805 48.8328 102.446 48.9303 102.112 49.1252C101.778 49.317 101.512 49.5822 101.313 49.9209C101.115 50.2564 101.015 50.6255 101.015 51.0282C101.015 51.4308 101.115 51.7999 101.313 52.1354C101.512 52.4677 101.778 52.7298 102.112 52.9215C102.446 53.1132 102.805 53.2091 103.189 53.2091Z" fill="#3366CC"/>
<path d="M108.401 53.6789C108.401 53.8067 108.335 53.8706 108.203 53.8706H107.746C107.614 53.8706 107.548 53.8067 107.548 53.6789V48.9095H106.997C106.864 48.9095 106.798 48.8456 106.798 48.7178V48.3343C106.798 48.2065 106.864 48.1426 106.997 48.1426H107.543V47.1504C107.543 47.0322 107.602 46.9635 107.721 46.9443L108.188 46.8676C108.201 46.8644 108.218 46.8628 108.238 46.8628C108.291 46.8628 108.33 46.8788 108.357 46.9107C108.386 46.9427 108.401 46.9858 108.401 47.0401V48.1426H109.523C109.655 48.1426 109.722 48.2065 109.722 48.3343V48.7178C109.722 48.8456 109.655 48.9095 109.523 48.9095H108.401V53.6789Z" fill="#3366CC"/>
<path d="M111.397 53.6789C111.397 53.8067 111.331 53.8706 111.198 53.8706H110.747C110.614 53.8706 110.548 53.8067 110.548 53.6789V48.3343C110.548 48.2065 110.614 48.1426 110.747 48.1426H111.198C111.331 48.1426 111.397 48.2065 111.397 48.3343V53.6789ZM111.675 46C111.728 46 111.769 46.0112 111.799 46.0336C111.828 46.0527 111.843 46.0799 111.843 46.115C111.843 46.1534 111.827 46.1933 111.794 46.2349L111.074 47.1312C111.008 47.2079 110.928 47.2463 110.836 47.2463H110.508C110.455 47.2463 110.412 47.2351 110.379 47.2127C110.349 47.1871 110.335 47.1552 110.335 47.1168C110.335 47.0881 110.344 47.0545 110.364 47.0162L110.881 46.1342C110.93 46.0447 111.01 46 111.119 46H111.675Z" fill="#3366CC"/>
<path d="M115.639 54C115.073 54 114.555 53.8674 114.085 53.6022C113.616 53.3369 113.245 52.9774 112.974 52.5237C112.706 52.0699 112.572 51.5714 112.572 51.0282C112.572 50.4817 112.706 49.9816 112.974 49.5279C113.245 49.0709 113.614 48.7098 114.081 48.4446C114.55 48.1762 115.07 48.0419 115.639 48.0419C116.029 48.0419 116.397 48.1027 116.741 48.2241C117.085 48.3455 117.394 48.5181 117.669 48.7418C117.719 48.7865 117.743 48.8328 117.743 48.8808C117.743 48.9159 117.727 48.9607 117.694 49.015L117.48 49.3457C117.441 49.4032 117.394 49.432 117.341 49.432C117.295 49.432 117.249 49.4128 117.202 49.3745C116.742 49.0134 116.231 48.8328 115.669 48.8328C115.262 48.8328 114.886 48.9287 114.542 49.1204C114.201 49.309 113.928 49.571 113.723 49.9065C113.521 50.2421 113.42 50.6159 113.42 51.0282C113.42 51.4404 113.521 51.8127 113.723 52.145C113.928 52.4773 114.203 52.7378 114.547 52.9263C114.891 53.1148 115.267 53.2091 115.674 53.2091C116.236 53.2091 116.747 53.0286 117.207 52.6675C117.247 52.6323 117.292 52.6147 117.341 52.6147C117.398 52.6147 117.446 52.6435 117.485 52.701L117.694 53.027C117.727 53.0717 117.743 53.118 117.743 53.166C117.743 53.2075 117.724 53.2459 117.684 53.281C117.412 53.5111 117.103 53.6884 116.756 53.8131C116.408 53.9377 116.036 54 115.639 54Z" fill="#3366CC"/>
<path d="M119.185 47.1839C119.053 47.1839 118.987 47.12 118.987 46.9922V46.5321C118.987 46.4042 119.053 46.3403 119.185 46.3403H119.637C119.769 46.3403 119.835 46.4042 119.835 46.5321V46.9922C119.835 47.12 119.769 47.1839 119.637 47.1839H119.185ZM119.835 53.6789C119.835 53.8067 119.769 53.8706 119.637 53.8706H119.185C119.053 53.8706 118.987 53.8067 118.987 53.6789V48.3343C118.987 48.2065 119.053 48.1426 119.185 48.1426H119.637C119.769 48.1426 119.835 48.2065 119.835 48.3343V53.6789Z" fill="#3366CC"/>
<path d="M125.879 48.3295C125.886 48.2049 125.952 48.1426 126.078 48.1426H126.505C126.637 48.1426 126.703 48.2065 126.703 48.3343V53.6789C126.703 53.8067 126.637 53.8706 126.505 53.8706H126.083C125.954 53.8706 125.886 53.8083 125.879 53.6836L125.869 52.9119C125.641 53.2443 125.355 53.5063 125.011 53.698C124.667 53.8898 124.273 53.9856 123.829 53.9856C123.293 53.9856 122.81 53.8546 122.38 53.5926C121.95 53.3305 121.614 52.9726 121.373 52.5189C121.131 52.0651 121.01 51.5634 121.01 51.0138C121.01 50.4673 121.131 49.9672 121.373 49.5135C121.617 49.0597 121.955 48.7018 122.385 48.4398C122.815 48.1746 123.297 48.0419 123.829 48.0419C124.279 48.0419 124.675 48.1378 125.016 48.3295C125.36 48.5181 125.644 48.7769 125.869 49.1061L125.879 48.3295ZM123.839 53.1947C124.236 53.1947 124.59 53.1005 124.901 52.9119C125.216 52.7234 125.461 52.4646 125.636 52.1354C125.811 51.8063 125.899 51.4372 125.899 51.0282C125.899 50.6191 125.811 50.2469 125.636 49.9113C125.461 49.5758 125.216 49.3122 124.901 49.1204C124.59 48.9287 124.238 48.8328 123.844 48.8328C123.457 48.8328 123.113 48.9287 122.812 49.1204C122.511 49.3122 122.278 49.5758 122.112 49.9113C121.947 50.2437 121.864 50.6159 121.864 51.0282C121.864 51.4372 121.947 51.8063 122.112 52.1354C122.278 52.4646 122.509 52.7234 122.807 52.9119C123.108 53.1005 123.452 53.1947 123.839 53.1947Z" fill="#3366CC"/>
<path d="M129.995 54C129.578 54 129.181 53.9313 128.804 53.7939C128.43 53.6533 128.097 53.4632 127.806 53.2235C127.753 53.1819 127.727 53.1356 127.727 53.0845C127.727 53.0429 127.745 52.9998 127.781 52.9551L128.034 52.6387C128.081 52.5844 128.129 52.5572 128.178 52.5572C128.215 52.5572 128.259 52.5748 128.312 52.6099C128.557 52.7857 128.822 52.9295 129.106 53.0413C129.391 53.1532 129.679 53.2091 129.97 53.2091C130.205 53.2091 130.413 53.1724 130.595 53.0989C130.781 53.0222 130.925 52.9151 131.027 52.7777C131.13 52.6403 131.181 52.4805 131.181 52.2984C131.181 52.1162 131.126 51.966 131.017 51.8478C130.911 51.7296 130.758 51.6321 130.556 51.5554C130.357 51.4755 130.083 51.3909 129.732 51.3014C129.176 51.1608 128.731 50.9531 128.397 50.6783C128.063 50.4034 127.895 50.0423 127.895 49.595C127.895 49.3233 127.968 49.0693 128.114 48.8328C128.259 48.5964 128.484 48.4062 128.789 48.2624C129.093 48.1154 129.472 48.0419 129.925 48.0419C130.23 48.0419 130.541 48.0963 130.858 48.2049C131.179 48.3104 131.454 48.459 131.682 48.6507C131.729 48.6858 131.752 48.7274 131.752 48.7753C131.752 48.8264 131.73 48.8744 131.687 48.9191L131.419 49.2307C131.38 49.2786 131.333 49.3026 131.28 49.3026C131.241 49.3026 131.194 49.285 131.141 49.2499C130.969 49.1252 130.774 49.0246 130.556 48.9479C130.341 48.8712 130.121 48.8328 129.896 48.8328C129.502 48.8328 129.206 48.9063 129.007 49.0533C128.812 49.1971 128.714 49.3841 128.714 49.6141C128.714 49.7643 128.759 49.8953 128.848 50.0072C128.938 50.1158 129.085 50.2165 129.29 50.3092C129.495 50.4018 129.778 50.4945 130.139 50.5872C130.718 50.7374 131.173 50.9419 131.504 51.2007C131.835 51.4596 132 51.8222 132 52.2888C132 52.5956 131.917 52.88 131.752 53.142C131.586 53.404 131.351 53.6133 131.047 53.7699C130.743 53.9233 130.392 54 129.995 54Z" fill="#3366CC"/>
</svg>
